HIERARCHY
ROOT joint_Root
{
	OFFSET 0.0 0.0 0.0
	CHANNELS 6 Xposition Yposition Zposition Zrotation Xrotation Yrotation 
	JOINT Hips
	{
		OFFSET -17.1583 93.1646 452.98
		CHANNELS 6 Xposition Yposition Zposition Zrotation Xrotation Yrotation 
		JOINT Spine
		{
			OFFSET 15.7357 0.0 0.0
			CHANNELS 6 Xposition Yposition Zposition Zrotation Xrotation Yrotation 
			JOINT Chest
			{
				OFFSET 8.98455 -0.406207 0.0
				CHANNELS 6 Xposition Yposition Zposition Zrotation Xrotation Yrotation 
				JOINT Neck
				{
					OFFSET 16.3773 0.0 0.0
					CHANNELS 6 Xposition Yposition Zposition Zrotation Xrotation Yrotation 
					JOINT Head
					{
						OFFSET 6.45672 0.0 0.0
						CHANNELS 6 Xposition Yposition Zposition Zrotation Xrotation Yrotation 
						End Site
						{
							OFFSET 0.0 0.0 0.0
						}
					}
				}
				JOINT Shoulder_L
				{
					OFFSET 12.9942 -0.242716 4.98039
					CHANNELS 6 Xposition Yposition Zposition Zrotation Xrotation Yrotation 
					JOINT UpperArm_L
					{
						OFFSET 5.34809 0.0 0.0
						CHANNELS 6 Xposition Yposition Zposition Zrotation Xrotation Yrotation 
						JOINT LowerArm_L
						{
							OFFSET 24.3286 1.87007e-05 0.0
							CHANNELS 6 Xposition Yposition Zposition Zrotation Xrotation Yrotation 
							JOINT Hand_L
							{
								OFFSET 22.2916 0.0 0.0
								CHANNELS 6 Xposition Yposition Zposition Zrotation Xrotation Yrotation 
								End Site
								{
									OFFSET 0.0 0.0 0.0
								}
							}
						}
					}
				}
				JOINT Shoulder_R
				{
					OFFSET 12.9945 -0.242716 -4.98039
					CHANNELS 6 Xposition Yposition Zposition Zrotation Xrotation Yrotation 
					JOINT UpperArm_R
					{
						OFFSET -5.34813 0.0 0.0
						CHANNELS 6 Xposition Yposition Zposition Zrotation Xrotation Yrotation 
						JOINT LowerArm_R
						{
							OFFSET -24.3289 0.000322201 0.0
							CHANNELS 6 Xposition Yposition Zposition Zrotation Xrotation Yrotation 
							JOINT Hand_R
							{
								OFFSET -22.2915 -0.000108084 0.0
								CHANNELS 6 Xposition Yposition Zposition Zrotation Xrotation Yrotation 
								End Site
								{
									OFFSET 0.0 0.0 0.0
								}
							}
						}
					}
				}
			}
		}
		JOINT UpperLeg_L
		{
			OFFSET -2.19248 -6.46944 0.0
			CHANNELS 6 Xposition Yposition Zposition Zrotation Xrotation Yrotation 
			JOINT LowerLeg_L
			{
				OFFSET 39.0811 0.0 -1.23785e-05
				CHANNELS 6 Xposition Yposition Zposition Zrotation Xrotation Yrotation 
				JOINT Foot_L
				{
					OFFSET 40.9854 0.0 -1.26872e-05
					CHANNELS 6 Xposition Yposition Zposition Zrotation Xrotation Yrotation 
					JOINT Toes_L
					{
						OFFSET 11.7543 0.0 0.0
						CHANNELS 6 Xposition Yposition Zposition Zrotation Xrotation Yrotation 
						End Site
						{
							OFFSET 0.0 0.0 0.0
						}
					}
				}
			}
		}
		JOINT UpperLeg_R
		{
			OFFSET -2.19251 6.46944 0.0
			CHANNELS 6 Xposition Yposition Zposition Zrotation Xrotation Yrotation 
			JOINT LowerLeg_R
			{
				OFFSET -39.0811 -0.00228153 -0.0401928
				CHANNELS 6 Xposition Yposition Zposition Zrotation Xrotation Yrotation 
				JOINT Foot_R
				{
					OFFSET -40.9854 0.0 0.0
					CHANNELS 6 Xposition Yposition Zposition Zrotation Xrotation Yrotation 
					JOINT Toes_R
					{
						OFFSET -11.7543 0.0 0.0
						CHANNELS 6 Xposition Yposition Zposition Zrotation Xrotation Yrotation 
						End Site
						{
							OFFSET 0.0 0.0 0.0
						}
					}
				}
			}
		}
	}
}
MOTION
Frames:	5
Frame Time:	0.0333333
0.000000 0.000000 0.000000 0.000000 0.000000 -0.000000 1.583530 89.776000 30.221100 -88.026800 6.140600 177.330000 15.735700 0.000005 -0.000001 135.669000 87.399600 -134.634000 8.984550 -0.406207 -0.000000 -4.167810 3.609760 2.203520 16.377300 -0.000001 -0.000001 2.193890 4.057430 -0.585735 6.456720 -0.000001 -0.000000 5.839070 4.273200 -5.235520 12.994200 -0.242716 4.980390 -93.063300 7.894920 -68.713900 5.348090 -0.000007 -0.000001 -51.622600 -22.950500 20.962600 24.328600 0.000019 0.000005 20.019500 24.109000 -41.732200 22.291600 -0.000001 0.000005 45.619600 4.507520 16.475500 12.994500 -0.242716 -4.980390 89.095900 2.831400 -72.283200 -5.348130 -0.000001 -0.000004 -70.686200 9.880650 -6.267850 -24.328900 0.000322 -0.000009 7.720120 4.661630 -59.060600 -22.291500 -0.000108 -0.000004 46.379000 5.398540 -2.889430 -2.192480 -6.469440 -0.000000 -176.048000 -4.056960 -27.989700 39.081100 -0.000007 -0.000012 -0.002535 0.029492 4.910710 40.985400 -0.000006 -0.000013 -5.527500 8.215550 -61.147200 11.754300 -0.000000 0.000003 0.002457 0.093103 -12.801100 -2.192510 6.469440 -0.000001 -178.542000 6.974730 -171.490000 -39.081100 -0.002282 -0.040193 -0.023699 0.080717 18.510000 -40.985400 0.000008 0.000006 -2.348530 11.879600 -74.565400 -11.754300 -0.000006 -0.000006 0.002157 0.114457 -11.931800
0.000000 0.000000 0.000000 0.000000 0.000000 -0.000000 1.075110 89.173800 25.226000 -88.514100 6.406010 176.866000 15.735700 0.000005 -0.000001 142.878000 87.534900 -141.977000 8.984550 -0.406207 -0.000000 -4.825800 3.828460 1.965600 16.377300 -0.000001 -0.000001 2.238760 4.001580 -0.456864 6.456720 -0.000001 -0.000000 6.026090 4.251210 -5.341130 12.994200 -0.242716 4.980390 -93.097300 7.984260 -68.716200 5.348090 -0.000007 -0.000001 -53.230800 -23.016300 19.241400 24.328600 0.000019 0.000005 17.677000 23.376700 -38.770600 22.291600 -0.000001 0.000005 45.922500 4.526530 16.159700 12.994500 -0.242716 -4.980390 89.162900 2.641650 -72.410000 -5.348130 -0.000001 -0.000004 -71.498600 8.713090 -4.725060 -24.328900 0.000322 -0.000009 6.889290 4.925380 -54.602300 -22.291500 -0.000108 -0.000004 46.876400 5.407030 -3.164850 -2.192480 -6.469440 -0.000000 -177.720000 -5.192450 -28.084900 39.081100 -0.000007 -0.000012 0.000509 -0.004539 6.404000 40.985400 -0.000006 -0.000013 -7.660140 8.421310 -60.832000 11.754300 -0.000000 0.000003 0.002452 0.093863 -12.770300 -2.192510 6.469440 -0.000001 179.923000 6.313080 -170.863000 -39.081100 -0.002282 -0.040193 -0.023952 0.068267 21.775200 -40.985400 0.000008 0.000006 -3.122680 12.080200 -72.966300 -11.754300 -0.000006 -0.000006 -0.000787 -0.012332 -17.074800
0.000000 0.000000 0.000000 0.000000 0.000000 -0.000000 0.420673 88.854800 20.039200 -89.742600 6.055280 175.053000 15.735700 0.000005 -0.000001 163.432000 88.093300 -162.922000 8.984550 -0.406207 -0.000000 -6.701990 3.583780 1.232530 16.377300 -0.000001 -0.000001 2.502060 3.902160 -0.152013 6.456720 -0.000001 -0.000000 6.458480 4.352010 -5.451570 12.994200 -0.242716 4.980390 -93.251200 8.406090 -68.765300 5.348090 -0.000007 -0.000001 -55.286500 -22.455800 17.509800 24.328600 0.000019 0.000005 14.969500 21.768600 -35.789500 22.291600 -0.000001 0.000005 45.979500 4.560820 15.582600 12.994500 -0.242716 -4.980390 89.148600 2.704270 -72.516800 -5.348130 -0.000001 -0.000004 -71.821400 7.814650 -2.453150 -24.328900 0.000322 -0.000009 5.385990 4.822030 -48.278100 -22.291500 -0.000108 -0.000004 47.337200 5.430410 -3.951780 -2.192480 -6.469440 -0.000000 179.788000 -3.688790 -33.823700 39.081100 -0.000007 -0.000012 -0.018130 0.058426 17.238800 40.985400 -0.000006 -0.000013 -1.935760 8.712200 -57.511500 11.754300 -0.000000 0.000003 0.002486 0.081695 -13.263600 -2.192510 6.469440 -0.000001 177.958000 6.106310 -172.244000 -39.081100 -0.002282 -0.040193 -0.004714 0.016889 25.416800 -40.985400 0.000008 0.000006 -3.661020 11.644300 -68.992600 -11.754300 -0.000006 -0.000006 -0.025949 -0.198258 -24.686300
0.000000 0.000000 0.000000 0.000000 0.000000 -0.000000 -0.346925 88.773800 14.527000 -91.458600 5.850590 173.889000 15.735700 0.000005 -0.000001 -169.838000 88.349300 169.724000 8.984550 -0.406207 -0.000000 -8.353170 3.256200 0.007447 16.377300 -0.000001 -0.000001 2.767740 3.879300 0.186752 6.456720 -0.000001 -0.000000 7.103850 4.617770 -5.014850 12.994200 -0.242716 4.980390 -93.541500 9.216960 -68.873600 5.348090 -0.000007 -0.000001 -57.000400 -21.828200 16.186800 24.328600 0.000019 0.000005 13.309500 20.346400 -34.230300 22.291600 -0.000001 0.000005 45.619800 4.584340 15.183000 12.994500 -0.242716 -4.980390 89.006900 3.198830 -72.742500 -5.348130 -0.000001 -0.000004 -71.704600 6.930180 0.321341 -24.328900 0.000322 -0.000009 4.253710 5.037950 -40.271700 -22.291500 -0.000108 -0.000004 47.457700 5.452050 -4.713410 -2.192480 -6.469440 -0.000000 178.208000 -0.227333 -36.253300 39.081100 -0.000007 -0.000012 0.035974 -0.081517 23.812200 40.985400 -0.000006 -0.000013 0.082728 6.305350 -53.560700 11.754300 -0.000000 0.000003 0.001899 0.124586 -11.524600 -2.192510 6.469440 -0.000001 175.721000 5.088640 -174.151000 -39.081100 -0.002282 -0.040193 0.037062 -0.058015 30.195900 -40.985400 0.000008 0.000006 -4.452590 10.270500 -61.806600 -11.754300 -0.000006 -0.000006 -0.088037 -0.413852 -33.791300
0.000000 0.000000 0.000000 0.000000 0.000000 -0.000000 -1.036450 88.762800 8.715310 -92.993700 5.070300 175.107000 15.735700 0.000005 -0.000001 -174.200000 88.612300 173.506000 8.984550 -0.406207 -0.000000 -8.034610 2.849300 -1.191090 16.377300 -0.000001 -0.000001 2.578800 3.602920 0.379135 6.456720 -0.000001 -0.000000 7.329070 4.605040 -4.394560 12.994200 -0.242716 4.980390 -93.635700 9.602500 -69.147800 5.348090 -0.000007 -0.000001 -60.074900 -20.901700 13.556900 24.328600 0.000019 0.000005 13.339200 20.740100 -33.804700 22.291600 -0.000001 0.000005 45.487900 4.598440 14.941100 12.994500 -0.242716 -4.980390 89.115700 2.878060 -72.913000 -5.348130 -0.000001 -0.000004 -72.416100 5.576400 2.833530 -24.328900 0.000322 -0.000009 2.973680 5.064820 -30.469100 -22.291500 -0.000108 -0.000004 46.826300 5.468730 -5.322820 -2.192480 -6.469440 -0.000000 177.072000 4.508010 -34.990700 39.081100 -0.000007 -0.000012 0.132048 -0.226257 30.268600 40.985400 -0.000006 -0.000013 1.001790 3.331130 -56.655800 11.754300 -0.000000 0.000003 0.000235 0.163562 -9.943010 -2.192510 6.469440 -0.000001 173.749000 4.412800 -175.147000 -39.081100 -0.002282 -0.040193 0.094611 -0.123094 36.572000 -40.985400 0.000008 0.000006 -4.066500 8.725310 -51.087400 -11.754300 -0.000006 -0.000006 -0.130153 -0.513941 -38.194800
